<svg width="215" height="46" viewBox="0 0 215 46" fill="none" xmlns="http://www.w3.org/2000/svg">
<g clip-path="url(#clip0)">
<path fill-rule="evenodd" clip-rule="evenodd" d="M51.0337 17.299L43.401 4.31373C42.6501 3.0392 41.464 2.08284 40.0639 1.62292C38.6639 1.16299 37.1454 1.23088 35.7914 1.81394L22.0163 7.76666C21.223 8.10877 20.5114 8.61713 19.9289 9.25783C19.3465 9.89852 18.9065 10.6568 18.6385 11.4821L12.2962 31.0198C11.8026 32.5402 11.9297 34.1957 12.6494 35.6219C13.3692 37.0482 14.6227 38.1284 16.1342 38.6249L24.5533 41.3906C24.7093 41.4419 24.8791 41.4287 25.0255 41.3539C25.1718 41.2792 25.2827 41.149 25.3336 40.9921L27.3852 34.672C27.415 34.5794 27.4227 34.481 27.4078 34.3848C27.3929 34.2887 27.3558 34.1973 27.2994 34.1182C27.2431 34.039 27.169 33.9743 27.0833 33.9291C26.9976 33.884 26.9025 33.8597 26.8057 33.8582L21.4714 33.7824C21.3525 33.7806 21.2367 33.744 21.138 33.6772C21.0393 33.6104 20.9621 33.5162 20.9157 33.406C20.8692 33.2959 20.8556 33.1745 20.8764 33.0568C20.8973 32.939 20.9517 32.8298 21.033 32.7425L21.811 31.9503L33.6224 19.7416C33.7032 19.6588 33.8053 19.6003 33.9173 19.5728C34.0293 19.5453 34.1467 19.5497 34.2563 19.5857C34.3659 19.6217 34.4633 19.6878 34.5376 19.7766C34.6118 19.8653 34.66 19.9731 34.6766 20.0879L37.0633 36.9607L37.2265 38.0621C37.2427 38.1821 37.2238 38.3042 37.172 38.4135C37.1203 38.5228 37.038 38.6146 36.9352 38.6776C36.8324 38.7405 36.7136 38.772 36.5933 38.7681C36.473 38.7642 36.3564 38.725 36.2579 38.6555L31.783 35.4671C31.7127 35.4169 31.6317 35.3841 31.5465 35.3712C31.4613 35.3583 31.3743 35.3657 31.2925 35.3929C31.2107 35.4201 31.1364 35.4662 31.0756 35.5276C31.0148 35.589 30.9691 35.6639 30.9424 35.7463L28.8631 42.1515C28.8122 42.3085 28.8253 42.4794 28.8996 42.6266C28.9739 42.7738 29.1033 42.8853 29.2593 42.9365L37.6784 45.7022C39.1899 46.1988 40.8355 46.0709 42.2533 45.3469C43.6711 44.6228 44.7449 43.3619 45.2385 41.8414L51.5808 22.3037C51.8485 21.4784 51.9383 20.605 51.8439 19.742C51.7496 18.879 51.4734 18.0461 51.0337 17.299ZM37.1981 10.4593C36.8368 10.3406 36.5186 10.1167 36.2838 9.81598C36.049 9.51526 35.9082 9.15122 35.8791 8.76996C35.8501 8.38869 35.9342 8.00733 36.1208 7.67416C36.3073 7.341 36.5879 7.07099 36.9271 6.89834C37.2662 6.72569 37.6487 6.65814 38.026 6.70426C38.4034 6.75038 38.7586 6.90808 39.0468 7.15741C39.335 7.40674 39.5432 7.73648 39.645 8.10489C39.7468 8.4733 39.7377 8.86382 39.6188 9.22701C39.4597 9.71293 39.1155 10.1155 38.6617 10.3466C38.2079 10.5776 37.6816 10.6181 37.1981 10.4593Z" fill="url(#paint0_linear)"/>
<path d="M60.7065 20.1765V7.36619H64.8361C66.3278 7.36619 67.5527 7.6285 68.5108 8.15311C69.4811 8.67772 70.1966 9.42194 70.6575 10.3858C71.1305 11.3374 71.367 12.472 71.367 13.7896C71.367 15.0951 71.1305 16.2297 70.6575 17.1935C70.1966 18.1452 69.4811 18.8833 68.5108 19.4079C67.5527 19.9203 66.3278 20.1765 64.8361 20.1765H60.7065ZM62.6348 18.5295H64.7633C65.9155 18.5295 66.8251 18.3404 67.4921 17.9621C68.1713 17.5839 68.6564 17.041 68.9474 16.3334C69.2506 15.6258 69.4023 14.7779 69.4023 13.7896C69.4023 12.8014 69.2506 11.9474 68.9474 11.2276C68.6564 10.5078 68.1713 9.95875 67.4921 9.58054C66.8251 9.19013 65.9155 8.99493 64.7633 8.99493H62.6348V18.5295Z" fill="url(#paint1_linear)"/>
<path d="M74.5165 9.37924C74.1526 9.37924 73.8494 9.26944 73.6069 9.04983C73.3764 8.81803 73.2612 8.53132 73.2612 8.18971C73.2612 7.8481 73.3764 7.5675 73.6069 7.34789C73.8494 7.11608 74.1526 7.00018 74.5165 7.00018C74.8803 7.00018 75.1774 7.11608 75.4079 7.34789C75.6504 7.5675 75.7717 7.8481 75.7717 8.18971C75.7717 8.53132 75.6504 8.81803 75.4079 9.04983C75.1774 9.26944 74.8803 9.37924 74.5165 9.37924ZM73.5523 20.1765V11.0995H75.4806V20.1765H73.5523Z" fill="url(#paint2_linear)"/>
<path d="M81.6282 20.3961C80.4882 20.3961 79.5483 20.1155 78.8085 19.5543C78.0687 18.9931 77.6442 18.2489 77.535 17.3216H79.4816C79.5786 17.7364 79.809 18.0964 80.1729 18.4014C80.5367 18.6942 81.0158 18.8406 81.61 18.8406C82.1922 18.8406 82.6167 18.7186 82.8835 18.4746C83.1503 18.2306 83.2837 17.9499 83.2837 17.6327C83.2837 17.1691 83.0957 16.858 82.7198 16.6994C82.3559 16.5286 81.8465 16.3761 81.1916 16.2419C80.6823 16.1321 80.1729 15.9857 79.6635 15.8027C79.1663 15.6197 78.7478 15.3635 78.4083 15.0341C78.0808 14.6925 77.9171 14.235 77.9171 13.6615C77.9171 12.8685 78.2203 12.2097 78.8267 11.6851C79.4331 11.1483 80.282 10.8799 81.3736 10.8799C82.3802 10.8799 83.1927 11.1239 83.8113 11.6119C84.4419 12.0999 84.8118 12.7892 84.921 13.6798H83.0654C83.0048 13.2894 82.8228 12.9844 82.5196 12.7648C82.2286 12.5452 81.8344 12.4354 81.3372 12.4354C80.8521 12.4354 80.4761 12.5391 80.2093 12.7465C79.9425 12.9417 79.809 13.1979 79.809 13.5151C79.809 13.8323 79.991 14.0825 80.3548 14.2655C80.7308 14.4485 81.2219 14.6132 81.8283 14.7596C82.4347 14.8938 82.9926 15.0524 83.502 15.2354C84.0235 15.4062 84.4419 15.6624 84.7573 16.004C85.0726 16.3456 85.2302 16.8458 85.2302 17.5046C85.2424 18.3343 84.921 19.0236 84.2661 19.5726C83.6233 20.1216 82.744 20.3961 81.6282 20.3961Z" fill="url(#paint3_linear)"/>
<path d="M91.6105 20.3961C90.7252 20.3961 89.9308 20.1948 89.2274 19.7922C88.5361 19.3896 87.9903 18.8345 87.5901 18.1268C87.202 17.407 87.0079 16.5774 87.0079 15.638C87.0079 14.6986 87.202 13.875 87.5901 13.1674C87.9903 12.4476 88.5361 11.8864 89.2274 11.4838C89.9308 11.0812 90.7252 10.8799 91.6105 10.8799C92.7263 10.8799 93.6601 11.1727 94.4121 11.7583C95.1761 12.3439 95.6673 13.1369 95.8856 14.1374H93.8663C93.745 13.6371 93.4782 13.2467 93.0659 12.9661C92.6535 12.6855 92.1684 12.5452 91.6105 12.5452C91.1375 12.5452 90.7009 12.6672 90.3007 12.9112C89.9005 13.143 89.5791 13.4907 89.3365 13.9543C89.094 14.4058 88.9727 14.967 88.9727 15.638C88.9727 16.309 89.094 16.8763 89.3365 17.3399C89.5791 17.7913 89.9005 18.139 90.3007 18.3831C90.7009 18.6271 91.1375 18.7491 91.6105 18.7491C92.1684 18.7491 92.6535 18.6088 93.0659 18.3282C93.4782 18.0476 93.745 17.651 93.8663 17.1386H95.8856C95.6794 18.1146 95.1943 18.9016 94.4303 19.4994C93.6662 20.0972 92.7263 20.3961 91.6105 20.3961Z" fill="url(#paint4_linear)"/>
<path d="M102.198 20.3961C101.336 20.3961 100.56 20.2009 99.8689 19.8105C99.1898 19.4079 98.6501 18.8528 98.2499 18.1451C97.8496 17.4253 97.6495 16.5896 97.6495 15.638C97.6495 14.6864 97.8496 13.8567 98.2499 13.1491C98.6622 12.4293 99.214 11.8742 99.9053 11.4838C100.597 11.0812 101.367 10.8799 102.216 10.8799C103.077 10.8799 103.847 11.0812 104.526 11.4838C105.217 11.8742 105.763 12.4293 106.163 13.1491C106.576 13.8567 106.782 14.6864 106.782 15.638C106.782 16.5896 106.576 17.4253 106.163 18.1451C105.763 18.8528 105.217 19.4079 104.526 19.8105C103.835 20.2009 103.059 20.3961 102.198 20.3961ZM102.198 18.7308C102.658 18.7308 103.083 18.6149 103.471 18.3831C103.871 18.1512 104.193 17.8096 104.435 17.3582C104.678 16.8946 104.799 16.3212 104.799 15.638C104.799 14.9548 104.678 14.3875 104.435 13.936C104.205 13.4724 103.889 13.1247 103.489 12.8929C103.101 12.6611 102.677 12.5452 102.216 12.5452C101.755 12.5452 101.324 12.6611 100.924 12.8929C100.536 13.1247 100.221 13.4724 99.9781 13.936C99.7355 14.3875 99.6143 14.9548 99.6143 15.638C99.6143 16.3212 99.7355 16.8946 99.9781 17.3582C100.221 17.8096 100.536 18.1512 100.924 18.3831C101.312 18.6149 101.737 18.7308 102.198 18.7308Z" fill="url(#paint5_linear)"/>
<path d="M112.196 20.3961C111.105 20.3961 110.244 20.0545 109.613 19.3713C108.995 18.6881 108.685 17.6693 108.685 16.3151V11.0995H110.614V16.1138C110.614 17.8706 111.329 18.7491 112.76 18.7491C113.476 18.7491 114.064 18.4929 114.525 17.9804C114.986 17.468 115.216 16.736 115.216 15.7844V11.0995H117.145V20.1765H115.435L115.289 18.5844C115.01 19.1456 114.598 19.5909 114.052 19.9203C113.518 20.2375 112.9 20.3961 112.196 20.3961Z" fill="url(#paint6_linear)"/>
<path d="M119.598 20.1765V11.0995H121.308L121.453 12.6916C121.732 12.1304 122.138 11.6912 122.672 11.374C123.218 11.0446 123.842 10.8799 124.546 10.8799C125.637 10.8799 126.492 11.2215 127.111 11.9047C127.742 12.5879 128.057 13.6066 128.057 14.9609V20.1765H126.147V15.1622C126.147 13.4053 125.431 12.5269 124 12.5269C123.285 12.5269 122.69 12.7831 122.217 13.2955C121.756 13.8079 121.526 14.54 121.526 15.4916V20.1765H119.598Z" fill="url(#paint7_linear)"/>
<path d="M134.112 20.1765C133.227 20.1765 132.523 19.963 132.002 19.536C131.48 19.0968 131.219 18.3221 131.219 17.2118V12.7282H129.673V11.0995H131.219L131.456 8.79363H133.148V11.0995H135.695V12.7282H133.148V17.2118C133.148 17.712 133.251 18.0597 133.457 18.255C133.675 18.438 134.045 18.5295 134.567 18.5295H135.604V20.1765H134.112Z" fill="url(#paint8_linear)"/>
<path d="M142.519 20.2196V7.40932H144.447V20.2196H142.519Z" fill="url(#paint9_linear)"/>
<path d="M150.015 20.2196V8.98315H146.249V7.40932H155.69V8.98315H151.943V20.2196H150.015Z" fill="url(#paint10_linear)"/>
<path d="M165.281 20.4392C164.347 20.4392 163.528 20.2745 162.825 19.9451C162.122 19.6157 161.57 19.146 161.169 18.536C160.781 17.926 160.581 17.2 160.569 16.3582H162.607C162.619 17.0414 162.855 17.621 163.316 18.0968C163.777 18.5726 164.426 18.8105 165.263 18.8105C166.002 18.8105 166.579 18.6336 166.991 18.2798C167.415 17.9138 167.628 17.4502 167.628 16.8889C167.628 16.4375 167.525 16.0715 167.318 15.7909C167.124 15.5103 166.851 15.2785 166.5 15.0955C166.16 14.9125 165.766 14.7478 165.317 14.6014C164.869 14.455 164.396 14.2964 163.898 14.1256C162.916 13.7962 162.176 13.3692 161.679 12.8445C161.194 12.3199 160.951 11.6306 160.951 10.7766C160.939 10.0568 161.103 9.42846 161.442 8.89165C161.794 8.35484 162.279 7.94003 162.898 7.64722C163.528 7.34222 164.262 7.18971 165.099 7.18971C165.924 7.18971 166.645 7.34222 167.264 7.64722C167.894 7.95223 168.386 8.37924 168.737 8.92825C169.089 9.46507 169.271 10.0934 169.283 10.8132H167.246C167.246 10.4838 167.161 10.1727 166.991 9.87988C166.821 9.57487 166.572 9.32476 166.245 9.12956C165.918 8.93435 165.517 8.83675 165.044 8.83675C164.438 8.82455 163.935 8.97705 163.534 9.29426C163.146 9.61147 162.952 10.0507 162.952 10.6119C162.952 11.1121 163.098 11.4964 163.389 11.7648C163.68 12.0332 164.08 12.2589 164.59 12.4419C165.099 12.6127 165.681 12.814 166.336 13.0459C166.967 13.2533 167.531 13.5034 168.028 13.7962C168.525 14.089 168.919 14.4733 169.21 14.9491C169.514 15.4249 169.665 16.0288 169.665 16.7608C169.665 17.4075 169.501 18.0114 169.174 18.5726C168.846 19.1216 168.355 19.573 167.7 19.9268C167.045 20.2684 166.239 20.4392 165.281 20.4392Z" fill="url(#paint11_linear)"/>
<path d="M175.485 20.2196C174.599 20.2196 173.896 20.0061 173.374 19.5791C172.853 19.1399 172.592 18.3652 172.592 17.2549V12.7713H171.046V11.1426H172.592L172.829 8.83675H174.52V11.1426H177.067V12.7713H174.52V17.2549C174.52 17.7552 174.623 18.1029 174.83 18.2981C175.048 18.4811 175.418 18.5726 175.939 18.5726H176.976V20.2196H175.485Z" fill="url(#paint12_linear)"/>
<path d="M183.045 20.4392C182.184 20.4392 181.408 20.244 180.717 19.8536C180.037 19.451 179.498 18.8959 179.097 18.1883C178.697 17.4685 178.497 16.6327 178.497 15.6811C178.497 14.7295 178.697 13.8999 179.097 13.1923C179.51 12.4724 180.062 11.9173 180.753 11.5269C181.444 11.1243 182.214 10.923 183.063 10.923C183.924 10.923 184.695 11.1243 185.374 11.5269C186.065 11.9173 186.611 12.4724 187.011 13.1923C187.423 13.8999 187.63 14.7295 187.63 15.6811C187.63 16.6327 187.423 17.4685 187.011 18.1883C186.611 18.8959 186.065 19.451 185.374 19.8536C184.682 20.244 183.906 20.4392 183.045 20.4392ZM183.045 18.7739C183.506 18.7739 183.93 18.658 184.319 18.4262C184.719 18.1944 185.04 17.8528 185.283 17.4014C185.525 16.9377 185.647 16.3643 185.647 15.6811C185.647 14.9979 185.525 14.4306 185.283 13.9792C185.052 13.5156 184.737 13.1679 184.337 12.936C183.949 12.7042 183.524 12.5883 183.063 12.5883C182.602 12.5883 182.172 12.7042 181.772 12.936C181.384 13.1679 181.068 13.5156 180.826 13.9792C180.583 14.4306 180.462 14.9979 180.462 15.6811C180.462 16.3643 180.583 16.9377 180.826 17.4014C181.068 17.8528 181.384 18.1944 181.772 18.4262C182.16 18.658 182.584 18.7739 183.045 18.7739Z" fill="url(#paint13_linear)"/>
<path d="M189.715 20.2196V11.1426H191.443L191.607 12.8628C191.922 12.265 192.359 11.7953 192.917 11.4537C193.487 11.0999 194.172 10.923 194.972 10.923V12.9543H194.445C193.911 12.9543 193.432 13.0459 193.008 13.2289C192.595 13.3997 192.262 13.6986 192.007 14.1256C191.765 14.5404 191.643 15.1199 191.643 15.8641V20.2196H189.715Z" fill="url(#paint14_linear)"/>
<path d="M200.598 20.4392C199.712 20.4392 198.924 20.244 198.233 19.8536C197.553 19.451 197.02 18.8959 196.632 18.1883C196.244 17.4807 196.05 16.6571 196.05 15.7177C196.05 14.7661 196.238 13.9304 196.614 13.2106C197.002 12.4907 197.535 11.9295 198.214 11.5269C198.906 11.1243 199.706 10.923 200.616 10.923C201.501 10.923 202.271 11.1243 202.926 11.5269C203.581 11.9173 204.09 12.4419 204.454 13.1008C204.818 13.7596 205 14.4855 205 15.2785C205 15.4005 204.994 15.5347 204.982 15.6811C204.982 15.8153 204.976 15.9678 204.964 16.1386H197.942C198.002 17.0171 198.287 17.6881 198.797 18.1517C199.318 18.6031 199.918 18.8288 200.598 18.8288C201.143 18.8288 201.598 18.7068 201.962 18.4628C202.338 18.2066 202.617 17.865 202.799 17.438H204.727C204.485 18.292 203.999 19.0057 203.272 19.5791C202.556 20.1525 201.665 20.4392 200.598 20.4392ZM200.598 12.5151C199.955 12.5151 199.385 12.7103 198.888 13.1008C198.39 13.479 198.087 14.0524 197.978 14.821H203.072C203.035 14.1134 202.787 13.5522 202.326 13.1374C201.865 12.7225 201.289 12.5151 200.598 12.5151Z" fill="url(#paint15_linear)"/>
<path d="M66.9843 31.3821C66.9843 32.0914 66.7777 32.6832 66.3644 33.1578C65.9511 33.6272 65.3694 33.9435 64.6194 34.1068V34.168C65.5174 34.2803 66.1909 34.5609 66.6399 35.0099C67.0889 35.4538 67.3134 36.0457 67.3134 36.7855C67.3134 37.8621 66.9333 38.6938 66.1731 39.2806C65.4128 39.8622 64.3311 40.1531 62.928 40.1531C61.6881 40.1531 60.6421 39.9515 59.79 39.5484V37.9489C60.2646 38.1836 60.7671 38.3647 61.2978 38.4923C61.8284 38.6198 62.3387 38.6836 62.8285 38.6836C63.6959 38.6836 64.3439 38.5229 64.7725 38.2014C65.2011 37.88 65.4154 37.3825 65.4154 36.709C65.4154 36.112 65.1781 35.6732 64.7036 35.3926C64.2291 35.112 63.4841 34.9716 62.4688 34.9716H61.4968V33.5098H62.4841C64.2699 33.5098 65.1628 32.8924 65.1628 31.6577C65.1628 31.1781 65.0072 30.8081 64.6959 30.5479C64.3847 30.2877 63.9255 30.1576 63.3183 30.1576C62.8948 30.1576 62.4866 30.2188 62.0937 30.3413C61.7009 30.4586 61.2366 30.6908 60.7008 31.0377L59.8207 29.7826C60.8462 29.0274 62.0376 28.6498 63.3948 28.6498C64.5225 28.6498 65.4026 28.8922 66.0353 29.3769C66.668 29.8617 66.9843 30.5301 66.9843 31.3821ZM68.8059 35.2319C68.8059 30.8541 70.5891 28.6652 74.1557 28.6652C74.7169 28.6652 75.1914 28.7085 75.5792 28.7953V30.2954C75.1914 30.1831 74.7424 30.127 74.2322 30.127C73.0332 30.127 72.1326 30.4484 71.5305 31.0913C70.9284 31.7342 70.6019 32.7649 70.5509 34.1833H70.6427C70.8825 33.77 71.2193 33.4511 71.653 33.2266C72.0867 32.997 72.5969 32.8822 73.1837 32.8822C74.199 32.8822 74.9899 33.1935 75.5563 33.816C76.1226 34.4385 76.4058 35.2829 76.4058 36.3493C76.4058 37.5228 76.0767 38.4514 75.4185 39.1352C74.7654 39.8138 73.8725 40.1531 72.7398 40.1531C71.9387 40.1531 71.2422 39.9617 70.6504 39.5791C70.0585 39.1913 69.6018 38.63 69.2804 37.8953C68.964 37.1554 68.8059 36.2676 68.8059 35.2319ZM72.7092 38.6683C73.3265 38.6683 73.8011 38.4693 74.1327 38.0713C74.4695 37.6733 74.6378 37.1044 74.6378 36.3646C74.6378 35.7217 74.4797 35.2166 74.1633 34.8492C73.8521 34.4818 73.3827 34.2981 72.7551 34.2981C72.3673 34.2981 72.0101 34.3823 71.6836 34.5507C71.357 34.714 71.0994 34.941 70.9106 35.2319C70.7218 35.5176 70.6274 35.811 70.6274 36.112C70.6274 36.8314 70.8213 37.4386 71.2091 37.9336C71.602 38.4234 72.102 38.6683 72.7092 38.6683ZM81.526 33.0123C82.6536 33.0123 83.5465 33.3108 84.2047 33.9078C84.8629 34.5048 85.192 35.3186 85.192 36.3493C85.192 37.5432 84.817 38.477 84.067 39.1505C83.322 39.8189 82.2607 40.1531 80.8831 40.1531C79.633 40.1531 78.6508 39.9515 77.9365 39.5484V37.9182C78.3498 38.153 78.8243 38.3341 79.3601 38.4616C79.8958 38.5892 80.3933 38.653 80.8525 38.653C81.6638 38.653 82.2811 38.4718 82.7046 38.1096C83.1281 37.7473 83.3399 37.2167 83.3399 36.5177C83.3399 35.1808 82.4878 34.5124 80.7836 34.5124C80.5438 34.5124 80.2479 34.5379 79.8958 34.589C79.5437 34.6349 79.2351 34.6885 78.9697 34.7497L78.1661 34.2752L78.5947 28.8106H84.4114V30.4102H80.179L79.9264 33.1807C80.105 33.1501 80.3219 33.1144 80.577 33.0736C80.8372 33.0328 81.1535 33.0123 81.526 33.0123ZM94.2079 40.1531C93.1517 40.1531 92.3277 39.7704 91.7358 39.005C91.1439 38.2397 90.848 37.1657 90.848 35.7829C90.848 34.3951 91.1465 33.3159 91.7434 32.5455C92.3455 31.7699 93.1772 31.3821 94.2385 31.3821C95.3508 31.3821 96.1978 31.7929 96.7794 32.6144H96.8713C96.7845 32.0072 96.7412 31.5276 96.7412 31.1755V28.0911H98.5474V40H97.1392L96.8254 38.8902H96.7412C96.1646 39.7321 95.3202 40.1531 94.2079 40.1531ZM94.69 38.6989C95.4299 38.6989 95.9682 38.4923 96.3049 38.079C96.6417 37.6606 96.8152 36.9845 96.8254 36.0508V35.7982C96.8254 34.7318 96.6519 33.9741 96.3049 33.5251C95.958 33.0761 95.4146 32.8516 94.6747 32.8516C94.042 32.8516 93.5548 33.1093 93.2129 33.6246C92.8711 34.1349 92.7001 34.8645 92.7001 35.8135C92.7001 36.7524 92.866 37.4692 93.1976 37.9642C93.5293 38.454 94.0267 38.6989 94.69 38.6989ZM106.415 40L106.055 38.8214H105.994C105.586 39.3367 105.175 39.6888 104.762 39.8775C104.349 40.0612 103.818 40.1531 103.17 40.1531C102.338 40.1531 101.688 39.9286 101.218 39.4796C100.754 39.0306 100.522 38.3953 100.522 37.5738C100.522 36.7013 100.846 36.0431 101.494 35.5992C102.142 35.1553 103.129 34.913 104.456 34.8721L105.918 34.8262V34.3747C105.918 33.8338 105.79 33.4307 105.535 33.1654C105.285 32.895 104.895 32.7598 104.364 32.7598C103.93 32.7598 103.515 32.8236 103.117 32.9511C102.719 33.0787 102.336 33.2292 101.969 33.4027L101.387 32.1169C101.846 31.8771 102.349 31.6959 102.895 31.5735C103.441 31.4459 103.956 31.3821 104.441 31.3821C105.517 31.3821 106.328 31.6169 106.874 32.0863C107.425 32.5557 107.701 33.293 107.701 34.2981V40H106.415ZM103.736 38.7754C104.39 38.7754 104.913 38.5943 105.305 38.232C105.703 37.8647 105.902 37.3519 105.902 36.6937V35.9589L104.816 36.0049C103.969 36.0355 103.351 36.1783 102.963 36.4335C102.581 36.6835 102.389 37.0687 102.389 37.5891C102.389 37.9667 102.502 38.2601 102.726 38.4693C102.951 38.6734 103.287 38.7754 103.736 38.7754ZM108.926 31.5352H110.885L112.607 36.334C112.867 37.0177 113.041 37.6606 113.127 38.2627H113.189C113.234 37.982 113.319 37.6427 113.441 37.2447C113.564 36.8417 114.212 34.9385 115.385 31.5352H117.329L113.709 41.1251C113.051 42.8854 111.954 43.7655 110.418 43.7655C110.02 43.7655 109.632 43.7222 109.255 43.6354V42.2119C109.525 42.2731 109.834 42.3037 110.181 42.3037C111.048 42.3037 111.658 41.8011 112.01 40.796L112.324 40L108.926 31.5352ZM124.301 37.5891C124.301 38.4157 124 39.051 123.398 39.4949C122.796 39.9337 121.934 40.1531 120.811 40.1531C119.684 40.1531 118.778 39.9821 118.094 39.6403V38.0866C119.089 38.5458 120.015 38.7754 120.873 38.7754C121.98 38.7754 122.534 38.4412 122.534 37.7728C122.534 37.5585 122.472 37.3799 122.35 37.2371C122.227 37.0942 122.026 36.9462 121.745 36.7932C121.465 36.6401 121.074 36.4666 120.574 36.2727C119.6 35.8952 118.939 35.5176 118.592 35.14C118.25 34.7624 118.079 34.2726 118.079 33.6705C118.079 32.946 118.37 32.3848 118.952 31.9868C119.538 31.5837 120.334 31.3821 121.34 31.3821C122.335 31.3821 123.276 31.5837 124.164 31.9868L123.582 33.3414C122.669 32.9639 121.901 32.7751 121.278 32.7751C120.329 32.7751 119.855 33.0455 119.855 33.5864C119.855 33.8517 119.977 34.0762 120.222 34.2599C120.472 34.4436 121.013 34.6961 121.845 35.0176C122.544 35.288 123.051 35.5355 123.368 35.76C123.684 35.9845 123.919 36.2447 124.072 36.5406C124.225 36.8314 124.301 37.181 124.301 37.5891ZM136.891 31.3821C136.891 32.0914 136.685 32.6832 136.272 33.1578C135.858 33.6272 135.277 33.9435 134.527 34.1068V34.168C135.425 34.2803 136.098 34.5609 136.547 35.0099C136.996 35.4538 137.221 36.0457 137.221 36.7855C137.221 37.8621 136.84 38.6938 136.08 39.2806C135.32 39.8622 134.238 40.1531 132.835 40.1531C131.595 40.1531 130.549 39.9515 129.697 39.5484V37.9489C130.172 38.1836 130.674 38.3647 131.205 38.4923C131.736 38.6198 132.246 38.6836 132.736 38.6836C133.603 38.6836 134.251 38.5229 134.68 38.2014C135.108 37.88 135.323 37.3825 135.323 36.709C135.323 36.112 135.085 35.6732 134.611 35.3926C134.136 35.112 133.391 34.9716 132.376 34.9716H131.404V33.5098H132.391C134.177 33.5098 135.07 32.8924 135.07 31.6577C135.07 31.1781 134.914 30.8081 134.603 30.5479C134.292 30.2877 133.833 30.1576 133.225 30.1576C132.802 30.1576 132.394 30.2188 132.001 30.3413C131.608 30.4586 131.144 30.6908 130.608 31.0377L129.728 29.7826C130.753 29.0274 131.945 28.6498 133.302 28.6498C134.43 28.6498 135.31 28.8922 135.942 29.3769C136.575 29.8617 136.891 30.5301 136.891 31.3821ZM138.713 35.2319C138.713 30.8541 140.496 28.6652 144.063 28.6652C144.624 28.6652 145.099 28.7085 145.486 28.7953V30.2954C145.099 30.1831 144.65 30.127 144.139 30.127C142.94 30.127 142.04 30.4484 141.438 31.0913C140.836 31.7342 140.509 32.7649 140.458 34.1833H140.55C140.79 33.77 141.126 33.4511 141.56 33.2266C141.994 32.997 142.504 32.8822 143.091 32.8822C144.106 32.8822 144.897 33.1935 145.463 33.816C146.03 34.4385 146.313 35.2829 146.313 36.3493C146.313 37.5228 145.984 38.4514 145.326 39.1352C144.673 39.8138 143.78 40.1531 142.647 40.1531C141.846 40.1531 141.149 39.9617 140.558 39.5791C139.966 39.1913 139.509 38.63 139.188 37.8953C138.871 37.1554 138.713 36.2676 138.713 35.2319ZM142.616 38.6683C143.234 38.6683 143.708 38.4693 144.04 38.0713C144.377 37.6733 144.545 37.1044 144.545 36.3646C144.545 35.7217 144.387 35.2166 144.07 34.8492C143.759 34.4818 143.29 34.2981 142.662 34.2981C142.274 34.2981 141.917 34.3823 141.591 34.5507C141.264 34.714 141.007 34.941 140.818 35.2319C140.629 35.5176 140.535 35.811 140.535 36.112C140.535 36.8314 140.728 37.4386 141.116 37.9336C141.509 38.4234 142.009 38.6683 142.616 38.6683ZM151.433 33.0123C152.561 33.0123 153.454 33.3108 154.112 33.9078C154.77 34.5048 155.099 35.3186 155.099 36.3493C155.099 37.5432 154.724 38.477 153.974 39.1505C153.229 39.8189 152.168 40.1531 150.79 40.1531C149.54 40.1531 148.558 39.9515 147.844 39.5484V37.9182C148.257 38.153 148.731 38.3341 149.267 38.4616C149.803 38.5892 150.3 38.653 150.76 38.653C151.571 38.653 152.188 38.4718 152.612 38.1096C153.035 37.7473 153.247 37.2167 153.247 36.5177C153.247 35.1808 152.395 34.5124 150.691 34.5124C150.451 34.5124 150.155 34.5379 149.803 34.589C149.451 34.6349 149.142 34.6885 148.877 34.7497L148.073 34.2752L148.502 28.8106H154.319V30.4102H150.086L149.834 33.1807C150.012 33.1501 150.229 33.1144 150.484 33.0736C150.744 33.0328 151.061 33.0123 151.433 33.0123ZM168.768 35.7523C168.768 37.135 168.414 38.2142 167.705 38.9897C166.995 39.7653 166.008 40.1531 164.743 40.1531C163.952 40.1531 163.253 39.9745 162.646 39.6173C162.038 39.2602 161.571 38.7474 161.245 38.079C160.918 37.4106 160.755 36.635 160.755 35.7523C160.755 34.3798 161.107 33.3083 161.811 32.5378C162.515 31.7674 163.508 31.3821 164.789 31.3821C166.013 31.3821 166.983 31.7776 167.697 32.5684C168.411 33.3542 168.768 34.4155 168.768 35.7523ZM162.607 35.7523C162.607 37.7065 163.329 38.6836 164.773 38.6836C166.202 38.6836 166.916 37.7065 166.916 35.7523C166.916 33.8185 166.197 32.8516 164.758 32.8516C164.003 32.8516 163.454 33.1016 163.112 33.6017C162.776 34.1017 162.607 34.8186 162.607 35.7523ZM175.09 32.8975H173.024V40H171.217V32.8975H169.825V32.0557L171.217 31.5046V30.9536C171.217 29.9535 171.452 29.2137 171.922 28.734C172.391 28.2493 173.108 28.007 174.072 28.007C174.705 28.007 175.327 28.1115 175.94 28.3207L175.465 29.6831C175.021 29.5402 174.598 29.4688 174.195 29.4688C173.786 29.4688 173.488 29.5963 173.299 29.8514C173.116 30.1015 173.024 30.479 173.024 30.9842V31.5352H175.09V32.8975ZM180.777 32.8975H178.71V40H176.904V32.8975H175.511V32.0557L176.904 31.5046V30.9536C176.904 29.9535 177.139 29.2137 177.608 28.734C178.078 28.2493 178.794 28.007 179.759 28.007C180.391 28.007 181.014 28.1115 181.626 28.3207L181.152 29.6831C180.708 29.5402 180.284 29.4688 179.881 29.4688C179.473 29.4688 179.175 29.5963 178.986 29.8514C178.802 30.1015 178.71 30.479 178.71 30.9842V31.5352H180.777V32.8975ZM185.928 40.1531C184.611 40.1531 183.58 39.7704 182.836 39.005C182.096 38.2346 181.726 37.1759 181.726 35.8288C181.726 34.4461 182.07 33.3593 182.759 32.5684C183.448 31.7776 184.394 31.3821 185.598 31.3821C186.716 31.3821 187.599 31.7215 188.247 32.4001C188.895 33.0787 189.219 34.0124 189.219 35.2012V36.1732H183.578C183.603 36.9947 183.825 37.6274 184.244 38.0713C184.662 38.5101 185.251 38.7295 186.012 38.7295C186.512 38.7295 186.976 38.6836 187.405 38.5918C187.838 38.4948 188.303 38.3366 188.798 38.1172V39.5791C188.359 39.7883 187.915 39.9362 187.466 40.023C187.017 40.1097 186.504 40.1531 185.928 40.1531ZM185.598 32.7445C185.027 32.7445 184.568 32.9256 184.221 33.2879C183.879 33.6501 183.675 34.1782 183.609 34.8721H187.451C187.44 34.1731 187.272 33.645 186.945 33.2879C186.619 32.9256 186.17 32.7445 185.598 32.7445ZM195.556 31.3821C195.918 31.3821 196.216 31.4077 196.451 31.4587L196.275 33.1348C196.02 33.0736 195.755 33.043 195.479 33.043C194.76 33.043 194.175 33.2777 193.726 33.7471C193.283 34.2165 193.061 34.8262 193.061 35.5763V40H191.262V31.5352H192.67L192.908 33.0277H192.999C193.28 32.5225 193.645 32.122 194.094 31.8261C194.548 31.5301 195.035 31.3821 195.556 31.3821ZM203.714 37.5891C203.714 38.4157 203.413 39.051 202.811 39.4949C202.209 39.9337 201.347 40.1531 200.224 40.1531C199.097 40.1531 198.191 39.9821 197.507 39.6403V38.0866C198.502 38.5458 199.428 38.7754 200.286 38.7754C201.393 38.7754 201.946 38.4412 201.946 37.7728C201.946 37.5585 201.885 37.3799 201.763 37.2371C201.64 37.0942 201.439 36.9462 201.158 36.7932C200.877 36.6401 200.487 36.4666 199.987 36.2727C199.012 35.8952 198.352 35.5176 198.005 35.14C197.663 34.7624 197.492 34.2726 197.492 33.6705C197.492 32.946 197.783 32.3848 198.364 31.9868C198.951 31.5837 199.747 31.3821 200.752 31.3821C201.747 31.3821 202.689 31.5837 203.577 31.9868L202.995 33.3414C202.082 32.9639 201.314 32.7751 200.691 32.7751C199.742 32.7751 199.268 33.0455 199.268 33.5864C199.268 33.8517 199.39 34.0762 199.635 34.2599C199.885 34.4436 200.426 34.6961 201.257 35.0176C201.957 35.288 202.464 35.5355 202.781 35.76C203.097 35.9845 203.332 36.2447 203.485 36.5406C203.638 36.8314 203.714 37.181 203.714 37.5891Z" fill="#158B5A"/>
</g>
<defs>
<linearGradient id="paint0_linear" x1="276.431" y1="63.8663" x2="260.368" y2="-49.708" gradientUnits="userSpaceOnUse">
<stop offset="0.216397" stop-color="#FF3D00"/>
<stop offset="0.748971" stop-color="#FF7A00"/>
</linearGradient>
<linearGradient id="paint1_linear" x1="276.431" y1="63.8663" x2="260.368" y2="-49.708" gradientUnits="userSpaceOnUse">
<stop offset="0.216397" stop-color="#FF3D00"/>
<stop offset="0.748971" stop-color="#FF7A00"/>
</linearGradient>
<linearGradient id="paint2_linear" x1="276.431" y1="63.8663" x2="260.368" y2="-49.708" gradientUnits="userSpaceOnUse">
<stop offset="0.216397" stop-color="#FF3D00"/>
<stop offset="0.748971" stop-color="#FF7A00"/>
</linearGradient>
<linearGradient id="paint3_linear" x1="276.431" y1="63.8663" x2="260.368" y2="-49.708" gradientUnits="userSpaceOnUse">
<stop offset="0.216397" stop-color="#FF3D00"/>
<stop offset="0.748971" stop-color="#FF7A00"/>
</linearGradient>
<linearGradient id="paint4_linear" x1="276.431" y1="63.8663" x2="260.368" y2="-49.708" gradientUnits="userSpaceOnUse">
<stop offset="0.216397" stop-color="#FF3D00"/>
<stop offset="0.748971" stop-color="#FF7A00"/>
</linearGradient>
<linearGradient id="paint5_linear" x1="276.431" y1="63.8663" x2="260.368" y2="-49.708" gradientUnits="userSpaceOnUse">
<stop offset="0.216397" stop-color="#FF3D00"/>
<stop offset="0.748971" stop-color="#FF7A00"/>
</linearGradient>
<linearGradient id="paint6_linear" x1="276.431" y1="63.8663" x2="260.368" y2="-49.708" gradientUnits="userSpaceOnUse">
<stop offset="0.216397" stop-color="#FF3D00"/>
<stop offset="0.748971" stop-color="#FF7A00"/>
</linearGradient>
<linearGradient id="paint7_linear" x1="276.431" y1="63.8663" x2="260.368" y2="-49.708" gradientUnits="userSpaceOnUse">
<stop offset="0.216397" stop-color="#FF3D00"/>
<stop offset="0.748971" stop-color="#FF7A00"/>
</linearGradient>
<linearGradient id="paint8_linear" x1="276.431" y1="63.8663" x2="260.368" y2="-49.708" gradientUnits="userSpaceOnUse">
<stop offset="0.216397" stop-color="#FF3D00"/>
<stop offset="0.748971" stop-color="#FF7A00"/>
</linearGradient>
<linearGradient id="paint9_linear" x1="276.431" y1="63.8663" x2="260.368" y2="-49.708" gradientUnits="userSpaceOnUse">
<stop offset="0.216397" stop-color="#FF3D00"/>
<stop offset="0.748971" stop-color="#FF7A00"/>
</linearGradient>
<linearGradient id="paint10_linear" x1="276.431" y1="63.8663" x2="260.368" y2="-49.708" gradientUnits="userSpaceOnUse">
<stop offset="0.216397" stop-color="#FF3D00"/>
<stop offset="0.748971" stop-color="#FF7A00"/>
</linearGradient>
<linearGradient id="paint11_linear" x1="276.431" y1="63.8663" x2="260.368" y2="-49.708" gradientUnits="userSpaceOnUse">
<stop offset="0.216397" stop-color="#FF3D00"/>
<stop offset="0.748971" stop-color="#FF7A00"/>
</linearGradient>
<linearGradient id="paint12_linear" x1="276.431" y1="63.8663" x2="260.368" y2="-49.708" gradientUnits="userSpaceOnUse">
<stop offset="0.216397" stop-color="#FF3D00"/>
<stop offset="0.748971" stop-color="#FF7A00"/>
</linearGradient>
<linearGradient id="paint13_linear" x1="276.431" y1="63.8663" x2="260.368" y2="-49.708" gradientUnits="userSpaceOnUse">
<stop offset="0.216397" stop-color="#FF3D00"/>
<stop offset="0.748971" stop-color="#FF7A00"/>
</linearGradient>
<linearGradient id="paint14_linear" x1="276.431" y1="63.8663" x2="260.368" y2="-49.708" gradientUnits="userSpaceOnUse">
<stop offset="0.216397" stop-color="#FF3D00"/>
<stop offset="0.748971" stop-color="#FF7A00"/>
</linearGradient>
<linearGradient id="paint15_linear" x1="276.431" y1="63.8663" x2="260.368" y2="-49.708" gradientUnits="userSpaceOnUse">
<stop offset="0.216397" stop-color="#FF3D00"/>
<stop offset="0.748971" stop-color="#FF7A00"/>
</linearGradient>
<clipPath id="clip0">
<rect width="215" height="46" fill="white"/>
</clipPath>
</defs>
</svg>
