<svg width="76" height="20" viewBox="0 0 76 20" fill="none" xmlns="http://www.w3.org/2000/svg">
<path fill-rule="evenodd" clip-rule="evenodd" d="M18.0944 8.05655C17.9745 8.50402 17.742 8.83244 17.3971 9.04214C17.0517 9.2518 16.5672 9.35685 15.9424 9.35685H13.9573L14.6541 6.75644H16.6393C17.2636 6.75644 17.6923 6.86129 17.9252 7.07095C18.1576 7.28085 18.2143 7.60931 18.0944 8.05655ZM20.1502 8.00051C20.4027 7.05956 20.298 6.33713 19.8364 5.83386C19.3747 5.33059 18.5658 5.0791 17.4105 5.0791H12.9791L10.312 15.0321H12.4649L13.5403 11.0201H14.9522C15.2687 11.0201 15.518 11.0714 15.7002 11.1739C15.8829 11.2767 15.9898 11.4584 16.0228 11.719L16.4068 15.0321H18.7136L18.3394 11.9429C18.2632 11.2532 17.9475 10.8478 17.3929 10.7267C18.1 10.5219 18.6923 10.1814 19.1693 9.70601C19.6458 9.2309 19.9731 8.66254 20.1502 8.00051Z" fill="#072654"/>
<path fill-rule="evenodd" clip-rule="evenodd" d="M25.3825 11.4682C25.2026 12.1391 24.9255 12.6519 24.5512 13.0059C24.1766 13.3601 23.7284 13.5371 23.2068 13.5371C22.6749 13.5371 22.3141 13.3625 22.124 13.0129C21.9329 12.6635 21.9264 12.1581 22.104 11.4961C22.2811 10.8346 22.5638 10.3174 22.9529 9.94428C23.3415 9.57189 23.7967 9.38526 24.3187 9.38526C24.8404 9.38526 25.1937 9.56496 25.3769 9.92362C25.5601 10.2823 25.5624 10.7972 25.3825 11.4682ZM26.3262 7.94545L26.0566 8.95199C25.9399 8.58842 25.7144 8.29971 25.3806 8.0854C25.0464 7.87109 24.6321 7.76367 24.1384 7.76367C23.5326 7.76367 22.9501 7.9199 22.3913 8.23208C21.8325 8.54446 21.3439 8.98476 20.926 9.55308C20.508 10.1216 20.2016 10.7693 20.0068 11.4961C19.812 12.2232 19.773 12.8639 19.8901 13.4183C20.0073 13.9729 20.2611 14.3992 20.6521 14.6974C21.0426 14.9959 21.5457 15.1447 22.1607 15.1447C22.6544 15.1447 23.1249 15.0422 23.5712 14.8371C24.0175 14.6324 24.3964 14.3479 24.7083 13.9845L24.4271 15.0329H26.5098L28.409 7.94545H26.3262Z" fill="#072654"/>
<path fill-rule="evenodd" clip-rule="evenodd" d="M35.898 7.94531H29.845L29.4219 9.52507H32.9445L28.2871 13.5508L27.8896 15.0327H34.1384L34.5619 13.4532H30.7879L35.5159 9.37116L35.898 7.94531Z" fill="#072654"/>
<path fill-rule="evenodd" clip-rule="evenodd" d="M41.2272 11.4543C41.0399 12.153 40.7623 12.6753 40.3951 13.0201C40.0278 13.3648 39.5834 13.537 39.0618 13.537C37.9711 13.537 37.6122 12.8431 37.9841 11.4543C38.1691 10.7646 38.4481 10.2451 38.8209 9.89571C39.1942 9.5461 39.6461 9.3713 40.1775 9.3713C40.6991 9.3713 41.051 9.5461 41.2324 9.89571C41.4136 10.2451 41.4123 10.7646 41.2272 11.4543ZM42.4458 8.2109C41.9664 7.91288 41.3542 7.76367 40.6085 7.76367C39.8535 7.76367 39.1543 7.91288 38.5104 8.2109C37.8665 8.50937 37.3184 8.93803 36.866 9.49705C36.4132 10.0563 36.0868 10.7086 35.8869 11.4543C35.687 12.2 35.6638 12.852 35.8172 13.4113C35.9702 13.9705 36.2882 14.3992 36.7726 14.6974C37.2565 14.9959 37.8758 15.1447 38.6308 15.1447C39.3765 15.1447 40.0687 14.9959 40.708 14.6974C41.3463 14.3992 41.8925 13.9705 42.3453 13.4113C42.7977 12.852 43.124 12.2 43.3239 11.4543C43.5239 10.7086 43.5471 10.0563 43.3941 9.49705C43.2407 8.93803 42.9246 8.50937 42.4458 8.2109Z" fill="#072654"/>
<path fill-rule="evenodd" clip-rule="evenodd" d="M64.2299 11.4682C64.05 12.1391 63.7729 12.6519 63.3987 13.0059C63.0244 13.3601 62.5753 13.5371 62.0537 13.5371C61.5228 13.5371 61.1616 13.3625 60.9714 13.0129C60.7804 12.6635 60.7739 12.1581 60.9515 11.4961C61.1286 10.8346 61.4113 10.3174 61.8004 9.94428C62.189 9.57189 62.6442 9.38526 63.1662 9.38526C63.6878 9.38526 64.0412 9.56496 64.2243 9.92362C64.4076 10.2823 64.4098 10.7972 64.2299 11.4682ZM65.1737 7.94545L64.904 8.95199C64.7873 8.58842 64.5619 8.29971 64.2281 8.0854C63.8938 7.87109 63.4796 7.76367 62.9858 7.76367C62.3801 7.76367 61.7976 7.9199 61.2388 8.23208C60.68 8.54446 60.1913 8.98476 59.7734 9.55308C59.3555 10.1216 59.0491 10.7693 58.8543 11.4961C58.6595 12.2232 58.6209 12.8639 58.7376 13.4183C58.8547 13.9729 59.1082 14.3992 59.4995 14.6974C59.8901 14.9959 60.3931 15.1447 61.0082 15.1447C61.5019 15.1447 61.9724 15.0422 62.4187 14.8371C62.865 14.6324 63.2439 14.3479 63.5558 13.9845L63.2746 15.0329H65.3573L67.2564 7.94545H65.1737Z" fill="#072654"/>
<path fill-rule="evenodd" clip-rule="evenodd" d="M49.8719 9.84636L50.4028 7.91725C50.2225 7.82403 49.9835 7.77734 49.6855 7.77734C49.2099 7.77734 48.752 7.89611 48.3108 8.13389C47.9319 8.33789 47.6093 8.62424 47.3368 8.98303L47.613 7.94416L47.01 7.94517H45.5309L43.6172 15.0325H45.7287L46.7213 11.3282C46.8659 10.7878 47.1253 10.3661 47.5005 10.0632C47.8747 9.76037 48.3419 9.60879 48.9012 9.60879C49.2461 9.60879 49.5693 9.68805 49.8719 9.84636Z" fill="#072654"/>
<path fill-rule="evenodd" clip-rule="evenodd" d="M55.7488 11.4959C55.5712 12.1579 55.296 12.6633 54.9231 13.0126C54.5494 13.3622 54.1021 13.5368 53.5805 13.5368C53.0584 13.5368 52.7028 13.3599 52.5136 13.0056C52.3239 12.6516 52.3192 12.139 52.4991 11.468C52.6791 10.7969 52.9589 10.282 53.3392 9.92334C53.7195 9.56467 54.1709 9.38498 54.693 9.38498C55.2053 9.38498 55.5536 9.57165 55.7381 9.94428C55.9222 10.3171 55.9259 10.8345 55.7488 11.4959ZM57.2244 8.2318C56.8325 7.91962 56.3337 7.76367 55.7284 7.76367C55.197 7.76367 54.6912 7.88477 54.2123 8.12699C53.7321 8.36966 53.343 8.69997 53.0445 9.11953L53.0512 9.07304L53.406 7.94421H52.9978V7.94521H51.3448L50.8199 9.90509C50.8139 9.92788 50.8088 9.94913 50.8027 9.97216L48.6377 18.0521H50.7488L51.839 13.9845C51.9459 14.3476 52.1681 14.6321 52.5048 14.8369C52.8413 15.0419 53.2565 15.1444 53.7507 15.1444C54.3658 15.1444 54.9506 14.9956 55.5061 14.6972C56.0612 14.3992 56.5438 13.9726 56.9529 13.418C57.3625 12.8638 57.6647 12.223 57.8595 11.4959C58.0543 10.769 58.0947 10.1214 57.9817 9.55284C57.8688 8.98448 57.6158 8.54422 57.2244 8.2318Z" fill="#072654"/>
<path fill-rule="evenodd" clip-rule="evenodd" d="M75.9989 7.94728L76.0003 7.94531H74.7215C74.6807 7.94531 74.6446 7.94648 74.6072 7.94728H73.9435L73.6042 8.4201C73.577 8.45572 73.5498 8.49158 73.5205 8.53317L73.4835 8.58792L70.7864 12.3442L70.2271 7.94531H68.0179L69.1367 14.6297L66.666 18.0522H66.7364H67.9979H68.8671L69.4658 17.2041C69.4835 17.1788 69.4986 17.1581 69.5175 17.1314L70.2162 16.1408L70.2362 16.1124L73.3626 11.6804L75.9968 7.95021L76.0003 7.94728H75.9989Z" fill="#072654"/>
<path fill-rule="evenodd" clip-rule="evenodd" d="M4.88638 6.21995L4.25439 8.54568L7.8706 6.20687L5.50572 15.0305L7.90726 15.0328L11.4008 2L4.88638 6.21995Z" fill="#3395FF"/>
<path fill-rule="evenodd" clip-rule="evenodd" d="M0.99422 11.3233L0 15.0326H4.9226C4.9226 15.0326 6.93607 7.48849 6.93663 7.48633C6.93475 7.48753 0.99422 11.3233 0.99422 11.3233Z" fill="#072654"/>
</svg>
